<?xml version="1.0" encoding="iso-8859-1"?>
<!-- Generator: Adobe Illustrator 19.0.0, SVG Export Plug-In . SVG Version: 6.00 Build 0)  -->
<svg xmlns="http://www.w3.org/2000/svg" xmlns:xlink="http://www.w3.org/1999/xlink" version="1.1" id="Capa_1" x="0px" y="0px" viewBox="0 0 512 512" style="enable-background:new 0 0 512 512;" xml:space="preserve" width="512" height="512">
<g>
	<path style="fill:#606572;" d="M261.206,451.029h-64.417c-73.388,0-132.88-59.492-132.88-132.88V165.088   C63.909,73.913,137.821,0,228.997,0h0c91.176,0,165.088,73.913,165.088,165.088v153.061   C394.086,391.537,334.593,451.029,261.206,451.029z"/>
	<path style="fill:#3B4254;" d="M228.997,0L228.997,0c-4.34,0-8.64,0.17-12.895,0.498c85.149,6.578,152.194,77.754,152.194,164.59   v153.061c0,73.388-59.492,132.88-132.88,132.88h25.789c73.388,0,132.88-59.492,132.88-132.88V165.089   C394.086,73.912,320.173,0,228.997,0z"/>
	<path style="fill:#F9C295;" d="M370.396,473.306H87.125l2.389-37.899c1.775-28.125,21.583-51.848,48.947-58.606l41.164-10.172   c2.037-0.501,3.459-2.321,3.459-4.415v-92.137h91.818v92.25c0,2.094,1.434,3.914,3.459,4.414L319.06,376.8   c27.363,6.758,47.172,30.481,48.947,58.606L370.396,473.306z"/>
	<path style="fill:#E8A26A;" d="M368.006,435.406c-1.775-28.125-21.583-51.848-48.947-58.606l-40.698-10.058   c-2.025-0.5-3.459-2.32-3.459-4.414v-92.25h-23.351v92.25c0,2.094,1.434,3.914,3.459,4.414l40.698,10.058   c27.363,6.758,47.172,30.481,48.947,58.606l2.389,37.899h23.351L368.006,435.406z"/>
	<path style="fill:#E8A26A;" d="M183.085,347.097c15.442,8.335,31.398,12.692,45.913,12.692c14.513,0,30.466-4.357,45.905-12.69   v-77.022h-91.818V347.097z"/>
	<path style="fill:#F9C295;" d="M347.395,221.012c-14.248,73.045-73.281,115.082-118.398,115.082   c-42.495,0-97.351-37.292-115.471-102.679c80.759-11.501,148.837-86.378,165.874-129.83   C279.4,103.586,279.4,199.272,347.395,221.012z"/>
	<path style="fill:#E8A26A;" d="M316.539,202.727c-3.831,79.898-54.27,128.291-94.965,132.986c2.507,0.243,4.987,0.381,7.423,0.381   c45.117,0,104.15-42.037,118.398-115.083C334.977,217.041,324.836,210.598,316.539,202.727z"/>
	<g>
		<path style="fill:#FEE9A1;" d="M366.189,35.386c-5.609,20.652-13.408,28.451-34.06,34.06c-4.281,1.163-4.281,7.25,0,8.413    c20.652,5.609,28.451,13.408,34.06,34.059c1.163,4.281,7.25,4.281,8.413,0c5.609-20.652,13.408-28.451,34.06-34.059    c4.281-1.163,4.281-7.25,0-8.413c-20.652-5.609-28.451-13.408-34.06-34.06C373.44,31.106,367.352,31.106,366.189,35.386z"/>
	</g>
	<g>
		<path style="fill:#FEE9A1;" d="M403.516,360.12l-53.887-49.801c-10.325-9.542-6.888-26.629,6.323-31.438l66.424-24.177    c13.211-4.809,26.827,6.072,25.051,20.019l-9.268,72.788L403.516,360.12z"/>
		<path style="fill:#FDCA67;" d="M422.375,254.704l-16.835,6.127c10.566-3.845,22.474,7.657,21.91,21.162l-2.946,70.487l13.655-4.97    l9.268-72.788C449.203,260.776,435.587,249.895,422.375,254.704z"/>
		<g>
			<path style="fill:#DDA84A;" d="M425.285,280.472c-1.341-7.685-4.625-16.633-8.933-23.575l-14.498,5.277     c2.998,3.891,7.096,11.948,8.653,20.877l3.397,19.459c0.713,4.079,4.596,6.811,8.679,6.099c4.08-0.713,6.811-4.599,6.099-8.679     L425.285,280.472z"/>
			<path style="fill:#DDA84A;" d="M370.284,300.488l9.906,17.091c1.392,2.4,3.908,3.74,6.496,3.74c1.276,0,2.57-0.326,3.754-1.012     c3.584-2.077,4.806-6.667,2.729-10.25l-9.907-17.092c-4.545-7.841-6.586-16.646-6.79-21.554l-14.491,5.274     C363.143,284.774,366.372,293.739,370.284,300.488z"/>
		</g>
		<path style="fill:#FD7BA2;" d="M400.781,365.288l29.907,82.169c4.301,11.817,17.368,17.91,29.185,13.609l0,0    c11.817-4.301,17.91-17.368,13.609-29.185l-29.907-82.169c-1.439-3.952-5.809-5.99-9.761-4.552l-28.482,10.367    C401.38,356.966,399.342,361.336,400.781,365.288z"/>
		<path style="fill:#E9488E;" d="M473.483,431.881l-29.907-82.169c-1.439-3.953-5.809-5.99-9.761-4.552l-14.855,5.407    c2.305-0.839,5.339,1.685,6.778,5.637l29.907,82.169c3.596,9.881,2.704,19.598-1.71,23.99c1.983-0.163,3.978-0.585,5.938-1.298    l0,0C471.691,456.765,477.784,443.698,473.483,431.881z"/>
		<polygon style="fill:#606572;" points="455.236,381.75 450.106,367.654 450.105,367.654 407.312,383.23 407.311,383.23     412.442,397.326 412.442,397.326 455.236,381.75   "/>
		<polygon style="fill:#3B4254;" points="450.105,367.654 432.268,374.147 437.398,388.243 455.236,381.75 450.106,367.654   "/>
	</g>
	<g>
		<path style="fill:#FF7870;" d="M115.378,326.49v73.861H47.331V295.162c0-1.273,0.287-2.445,0.873-3.468    c4.229-7.312,22.482-4.666,40.785,5.901C104.723,306.678,115.378,318.655,115.378,326.49z"/>
		<path style="fill:#D7352E;" d="M92.573,299.772v100.578h22.805V326.49C115.378,319.267,106.316,308.523,92.573,299.772z"/>
		<path style="fill:#78BAF6;" d="M115.445,400.351H47.264c-5.592,0-10.126,4.534-10.126,10.126v91.398    c0,5.592,4.533,10.126,10.126,10.126h68.181c5.592,0,10.126-4.534,10.126-10.126v-91.398    C125.571,404.884,121.037,400.351,115.445,400.351z"/>
		<path style="fill:#1885DA;" d="M115.445,400.351H92.64c5.592,0,10.126,4.534,10.126,10.126v91.397    c0,5.592-4.533,10.126-10.126,10.126h22.805c5.592,0,10.126-4.534,10.126-10.126v-91.397    C125.571,404.884,121.037,400.351,115.445,400.351z"/>
		<path style="fill:#FF9794;" d="M115.378,326.49c0,1.285-0.287,2.458-0.886,3.481c-4.217,7.312-22.483,4.666-40.785-5.901    c-15.733-9.083-26.375-21.073-26.375-28.908c0-1.273,0.287-2.445,0.873-3.468c4.229-7.312,22.482-4.666,40.785,5.901    C104.723,306.678,115.378,318.655,115.378,326.49z"/>
		<rect x="37.138" y="423.397" style="fill:#606572;" width="88.433" height="15"/>
		<rect x="102.766" y="423.397" style="fill:#3B4254;" width="22.805" height="15"/>
	</g>
</g>















</svg>
