<svg id="Layer_2" height="512" viewBox="0 0 128 128" width="512" xmlns="http://www.w3.org/2000/svg" data-name="Layer 2"><path d="m76.828 44.824h-25.656l-.673-3.8a16.375 16.375 0 0 0 -3.04-6.992 16.377 16.377 0 0 1 -3.292-9.849v-4.683h39.666v4.686a16.377 16.377 0 0 1 -3.292 9.849 16.375 16.375 0 0 0 -3.04 6.992z" fill="#fb6572"/><path d="m53.5 19.498h-9.333v-17.748h6.331z" fill="#515a5e"/><path d="m74.5 19.498h9.333v-17.748h-6.331z" fill="#515a5e"/><path d="m51.159 44.824h25.682v8.667h-25.682z" fill="#fee372"/><path d="m90.84 110.05v16.2h-53.68v-16.2a117.445 117.445 0 0 1 9.83-47.02l4.17-9.54h25.68l4.17 9.54a117.445 117.445 0 0 1 9.83 47.02z" fill="#fb6572"/><g fill="#ea394e"><path d="m52.23 96.74-.52 3.71a185.615 185.615 0 0 0 -1.8 25.8h-3.5a189.331 189.331 0 0 1 1.83-26.28l.52-3.71a1.752 1.752 0 0 1 3.47.48z"/><path d="m81.59 126.25h-3.5a185.615 185.615 0 0 0 -1.8-25.8l-.52-3.71a1.752 1.752 0 0 1 3.47-.48l.52 3.71a189.331 189.331 0 0 1 1.83 26.28z"/><path d="m65.75 104.83v21.42h-3.5v-21.42a1.75 1.75 0 1 1 3.5 0z"/></g></svg>