<svg height="512pt" viewBox="-53 0 512 512" width="512pt" xmlns="http://www.w3.org/2000/svg"><path d="m114.757812 414.898438c.722657 28.386718 5.175782 56.554687 13.242188 83.78125 2.039062 7.652343 8.855469 13.066406 16.773438 13.320312h116.523437c7.917969-.253906 14.730469-5.667969 16.773437-13.320312 8.066407-27.226563 12.515626-55.394532 13.238282-83.78125zm0 0" fill="#894b9d"/><path d="m132.414062 414.898438c.566407 28.222656 4.117188 56.304687 10.59375 83.78125.90625 6.988281 6.4375 12.472656 13.433594 13.320312h93.183594c7-.847656 12.53125-6.332031 13.4375-13.320312 6.476562-27.476563 10.027344-55.558594 10.59375-83.78125zm0 0" fill="#955ba5"/><path d="m291.308594 97.101562c-.722656-28.386718-5.171875-56.554687-13.238282-83.78125-2.042968-7.652343-8.855468-13.066406-16.773437-13.320312h-116.523437c-7.917969.253906-14.734376 5.667969-16.773438 13.320312-8.066406 27.226563-12.519531 55.394532-13.242188 83.78125zm0 0" fill="#894b9d"/><path d="m273.65625 97.101562c-.566406-28.222656-4.117188-56.304687-10.59375-83.78125-.90625-6.988281-6.4375-12.472656-13.4375-13.320312h-93.183594c-6.996094.847656-12.527344 6.332031-13.433594 13.320312-6.476562 27.476563-10.027343 55.558594-10.59375 83.78125zm0 0" fill="#955ba5"/><path d="m52.964844 220.691406h-35.308594c-9.75 0-17.65625 7.902344-17.65625 17.652344v35.3125c0 9.75 7.90625 17.652344 17.65625 17.652344h35.308594zm0 0" fill="#7f8c8d"/><path d="m44.136719 273.65625h-35.308594c-4.875 0-8.828125-3.953125-8.828125-8.828125v-17.65625c0-4.875 3.953125-8.828125 8.828125-8.828125h35.308594zm0 0" fill="#bdc3c7"/><path d="m353.101562 326.621094h35.3125c9.75 0 17.65625-7.90625 17.65625-17.65625v-17.65625c0-9.75-7.90625-17.652344-17.65625-17.652344h-35.3125zm0 0" fill="#7f8c8d"/><path d="m353.101562 238.34375h35.3125c9.75 0 17.65625-7.902344 17.65625-17.652344v-17.65625c0-9.75-7.90625-17.65625-17.65625-17.65625h-35.3125zm0 0" fill="#7f8c8d"/><path d="m361.929688 194.207031h35.3125c4.875 0 8.828124 3.953125 8.828124 8.828125v17.65625c0 4.875-3.953124 8.824219-8.828124 8.824219h-35.3125zm0 0" fill="#bdc3c7"/><path d="m361.929688 282.484375h35.3125c4.875 0 8.828124 3.949219 8.828124 8.824219v17.65625c0 4.875-3.953124 8.828125-8.828124 8.828125h-35.3125zm0 0" fill="#bdc3c7"/><path d="m123.585938 88.277344h158.898437c48.75 0 88.273437 39.519531 88.273437 88.273437v158.898438c0 48.753906-39.523437 88.273437-88.273437 88.273437h-158.898437c-48.753907 0-88.277344-39.519531-88.277344-88.273437v-158.898438c0-48.753906 39.523437-88.273437 88.277344-88.273437zm0 0" fill="#95a5a5"/><path d="m123.585938 97.101562h158.898437c43.875 0 79.445313 35.570313 79.445313 79.449219v158.898438c0 43.878906-35.570313 79.449219-79.445313 79.449219h-158.898437c-43.878907 0-79.449219-35.570313-79.449219-79.449219v-158.898438c0-43.878906 35.570312-79.449219 79.449219-79.449219zm0 0" fill="#bdc3c7"/><path d="m335.449219 176.550781v158.898438c0 29.25-23.714844 52.964843-52.964844 52.964843h-158.898437c-29.25 0-52.964844-23.714843-52.964844-52.964843v-158.898438c0-29.25 23.714844-52.964843 52.964844-52.964843h158.898437c29.25 0 52.964844 23.714843 52.964844 52.964843zm0 0" fill="#35495e"/><path d="m324.855469 144.859375c-41.226563 15.359375-191.207031 80.507813-233.667969 232.433594-12.996094-9.984375-20.601562-25.453125-20.566406-41.84375v-158.898438c0-29.25 23.714844-52.964843 52.964844-52.964843h158.898437c16.695313-.015626 32.410156 7.875 42.371094 21.273437zm0 0" fill="#3f5c6c"/><path d="m292.015625 256c-2.039063 5.714844-4.457031 11.289062-7.238281 16.683594-14.300782 30.101562-51.109375 60.292968-81.742188 80.417968-30.632812-20.125-67.445312-50.316406-81.742187-80.417968-2.785157-5.394532-5.203125-10.96875-7.242188-16.683594h27.191407l26.480468-33.542969c.921875-1.234375 2.417969-1.898437 3.953125-1.753906 1.53125.144531 2.878907 1.074219 3.550781 2.457031l27.808594 65.679688c.71875 1.453125 2.179688 2.394531 3.804688 2.453125 1.621094.054687 3.144531-.785157 3.964844-2.191407l27.539062-57.378906c.757812-1.328125 2.152344-2.167968 3.679688-2.222656 1.527343-.054688 2.976562.6875 3.824218 1.960938l18.980469 24.539062zm0 0" fill="#df4d60"/><path d="m292.015625 256h-27.1875l-18.980469-24.539062c-.847656-1.273438-2.296875-2.015626-3.824218-1.960938-1.527344.054688-2.921876.894531-3.679688 2.222656l-27.539062 57.378906c-.820313 1.40625-2.34375 2.246094-3.964844 2.191407-1.625-.058594-3.085938-1-3.804688-2.453125l-27.808594-65.679688c-.671874-1.382812-2.019531-2.3125-3.550781-2.457031-1.535156-.144531-3.03125.519531-3.953125 1.753906l-26.480468 33.542969h-27.191407c-12.886719-34.339844-10.414062-66.558594 7.242188-83.863281 20.390625-20.125 61.261719-20.125 81.742187 20.039062 20.480469-40.164062 61.351563-40.164062 81.742188-20.039062 17.65625 17.304687 20.128906 49.523437 7.238281 83.863281zm0 0" fill="#ff5364"/><g fill="#fff"><path d="m132.414062 361.929688h-8.828124c-4.875 0-8.828126-3.949219-8.828126-8.828126 0-4.875 3.953126-8.824218 8.828126-8.824218h8.828124c4.875 0 8.828126 3.949218 8.828126 8.824218 0 4.878907-3.953126 8.828126-8.828126 8.828126zm0 0"/><path d="m282.484375 361.929688h-8.828125c-4.875 0-8.828125-3.949219-8.828125-8.828126 0-4.875 3.953125-8.824218 8.828125-8.824218h8.828125c4.875 0 8.824219 3.949218 8.824219 8.824218 0 4.878907-3.949219 8.828126-8.824219 8.828126zm0 0"/></g></svg>