<svg viewBox="0 0 512 512" xmlns="http://www.w3.org/2000/svg"><g fill="#ececf1"><path d="m421 391h30v30h-30zm0 0"/><path d="m421 451h30v30h-30zm0 0"/><path d="m391 421h30v30h-30zm0 0"/></g><path d="m451 421h30v30h-30zm0 0" fill="#e2e2e7"/><path d="m0 211 256 301-29.085938-169.816406-75.914062-131.183594-55-30zm0 0" fill="#ff9ac9"/><path d="m361 211-73.554688 124.441406-31.445312 176.558594 256-301-76-30zm0 0" fill="#ff7cb9"/><path d="m361 211-105 301-105-301 105-30zm0 0" fill="#ff7cb9"/><path d="m361 211-105 301v-331zm0 0" fill="#ff5ca8"/><path d="m512 211h-151v-90l60-30zm0 0" fill="#ff3997"/><path d="m151 211h-151l91-120 60 30zm0 0" fill="#ff5ca8"/><path d="m256 91-15 90-90 30-60-120zm0 0" fill="#ff7cb9"/><path d="m421 91-60 120-90-30-15-90zm0 0" fill="#ff5ca8"/><path d="m361 211h-210l105-120zm0 0" fill="#ff9ac9"/><path d="m361 211h-105v-120zm0 0" fill="#ff7cb9"/><path d="m436 391h15v30h-15zm0 0" fill="#e2e2e7"/><path d="m436 451h15v30h-15zm0 0" fill="#e2e2e7"/><path d="m31 0h30v31h-30zm0 0" fill="#ececf1"/><path d="m31 61h30v30h-30zm0 0" fill="#ececf1"/><path d="m0 31h31v30h-31zm0 0" fill="#ececf1"/><path d="m61 31h30v30h-30zm0 0" fill="#e2e2e7"/><path d="m46 0h15v31h-15zm0 0" fill="#e2e2e7"/><path d="m46 61h15v30h-15zm0 0" fill="#e2e2e7"/></svg>